<?xml version="1.0" standalone="no"?>
<!DOCTYPE svg PUBLIC "-//W3C//DTD SVG 20010904//EN"
 "http://www.w3.org/TR/2001/REC-SVG-20010904/DTD/svg10.dtd">
<svg version="1.0" xmlns="http://www.w3.org/2000/svg"
 width="1363.000000pt" height="1363.000000pt" viewBox="0 0 1363.000000 1363.000000"
 preserveAspectRatio="xMidYMid meet">
<metadata>
Created by potrace 1.11, written by Peter Selinger 2001-2013
</metadata>
<g transform="translate(0.000000,1363.000000) scale(0.100000,-0.100000)"
fill="#000000" stroke="none">
<path d="M6210 9155 l0 -3325 325 0 325 0 0 3325 0 3325 -325 0 -325 0 0
-3325z"/>
<path d="M7262 9819 l3 -532 102 -24 c767 -175 1452 -645 1900 -1303 455 -668
650 -1486 557 -2340 -54 -500 -215 -999 -455 -1407 -501 -850 -1302 -1401
-2239 -1537 -255 -37 -634 -38 -894 -1 -609 85 -1156 323 -1626 708 -113 92
-369 351 -450 455 -258 330 -424 629 -557 1002 -186 523 -248 1149 -167 1700
107 728 440 1384 961 1891 380 371 804 622 1311 779 l102 32 0 540 0 540 -42
-7 c-106 -17 -327 -71 -478 -116 -451 -136 -917 -371 -1293 -652 -183 -137
-279 -220 -442 -382 -335 -332 -578 -668 -796 -1100 -295 -588 -444 -1163
-481 -1862 -41 -788 120 -1580 459 -2257 91 -182 140 -267 259 -446 819 -1238
2230 -1940 3814 -1897 907 25 1567 247 2175 733 225 179 579 556 796 847 l64
86 3 -734 2 -735 555 0 555 0 0 4195 0 4195 -555 0 -555 0 -2 -740 -3 -739
-106 142 c-498 664 -1069 1097 -1749 1327 -217 73 -402 117 -698 166 l-32 5 2
-532z"/>
</g>
</svg>
